# xmcd
#
# Track frame offsets:
#	150
#	12463
#	25763
#	37408
#	54410
#	65908
#	78078
#	90680
#	103683
#	114988
#	124795
#	137088
#
# Disc length: 2007
#
# Revision: 2
# Processed by: cddbd v1.5.1PL0 Copyright (c) Steve Scherf et al.
# Submitted via: CDex 1.30
# Normalized: r1:DSETVAR1,TDELIM( - )
#
DISCID=a107d50c
DTITLE=Various Artist - Juke-Box Country Hits
DYEAR=1990
DGENRE=Country
TTITLE0=Everly Brothers - Let it be me
TTITLE1=Alabama - Patches
TTITLE2=Willie Nelson - End of understanding
TTITLE3=Lynn Anderson - Blue Bayou
TTITLE4=Freddy Fender - Before the next Teardrop Falls
TTITLE5=Waylon Jennings - Dont't Think Twice
TTITLE6=Johnny Cash - Folsom Prison Blues
TTITLE7=Gene Pitney - The Man Who Shot Liberty Valence
TTITLE8=Patsy Cline - Just Out Of Reach
TTITLE9=Hank Locklin - Please Help Me I'm Falling
TTITLE10=Kenny Rogers - Ruben James
TTITLE11=Jerry Lee Lewis - Cold Cold Heart
EXTD=YEAR: 1990  ID3G:   2
EXTT0=
EXTT1=
EXTT2=
EXTT3=
EXTT4=
EXTT5=
EXTT6=
EXTT7=
EXTT8=
EXTT9=
EXTT10=
EXTT11=
PLAYORDER=
